<?xml version="1.0" standalone="no"?><!DOCTYPE svg PUBLIC "-//W3C//DTD SVG 1.1//EN" "http://www.w3.org/Graphics/SVG/1.1/DTD/svg11.dtd"><svg t="1716033683079" class="icon" viewBox="0 0 1024 1024" version="1.1" xmlns="http://www.w3.org/2000/svg" p-id="3937" xmlns:xlink="http://www.w3.org/1999/xlink" width="200" height="200"><path d="M65.28 307.392c0 6.912 5.504 12.544 12.672 12.544h34.24a12.544 12.544 0 0 0 12.672-12.544V140.8a12.48 12.48 0 0 0-12.672-12.608h-34.24A12.544 12.544 0 0 0 65.28 140.8v166.528z m416.896 0c0 6.912 5.504 12.544 12.672 12.544h34.304a12.544 12.544 0 0 0 12.608-12.544V140.8a12.48 12.48 0 0 0-12.608-12.608h-34.304a12.544 12.544 0 0 0-12.672 12.608v166.528z m416.896-64.064c0 7.04 5.504 12.8 12.672 12.8h34.304a12.544 12.544 0 0 0 12.608-12.8V140.992a12.544 12.544 0 0 0-12.608-12.736h-34.304a12.544 12.544 0 0 0-12.672 12.8v102.272z m-744.448 64.064c0 6.912 5.12 12.544 12.8 12.544h272.192c7.04 0 12.8-5.504 12.8-12.544V140.8a12.352 12.352 0 0 0-12.8-12.608H167.424c-7.04 0-12.8 5.568-12.8 12.608v166.528z m0 255.552c0 6.976 5.12 12.544 12.8 12.544h272.192c7.04 0 12.8-5.504 12.8-12.544V396.416a12.352 12.352 0 0 0-12.8-12.544H167.424c-7.04 0-12.8 5.504-12.8 12.544v166.528z m416.896 0c0 6.976 5.184 12.544 12.8 12.544h272.192c7.04 0 12.8-5.504 12.8-12.544V396.416a12.352 12.352 0 0 0-12.8-12.544H584.32c-7.04 0-12.8 5.504-12.8 12.544v166.528z m284.992 195.648c7.04 1.28 12.8-3.264 12.8-10.496v-102.4a15.36 15.36 0 0 0-12.8-14.848l-272.192-46.72c-7.04-1.28-12.8 3.264-12.8 10.496v102.4c0 6.976 5.184 13.568 12.8 14.848l272.192 46.72z m-552.96-87.232l-137.216-76.544c-6.464-3.584-11.712-1.024-11.712 6.208V703.36c0 7.04 4.672 15.744 10.752 19.648l19.008 12.224-17.664 7.616a21.056 21.056 0 0 0-12.096 17.92v102.336c0 7.04 4.928 10.176 11.712 6.656l137.216-70.656 137.152 70.656c6.464 3.328 11.712 0.576 11.712-6.656v-102.4a21.76 21.76 0 0 0-12.16-17.92l-17.6-7.552 19.008-12.224a25.664 25.664 0 0 0 10.752-19.648v-102.4c0-6.976-4.928-9.92-11.712-6.144L303.552 671.36zM571.52 243.328c0 7.04 5.184 12.8 12.8 12.8h272.192c7.04 0 12.8-5.568 12.8-12.8V140.992c0-7.04-5.12-12.736-12.8-12.736H584.32c-7.04 0-12.8 5.504-12.8 12.8v102.272z m284.992 131.968c7.04 1.152 12.8-3.712 12.8-10.176v-39.232a15.104 15.104 0 0 0-12.8-14.528L584.32 264.64c-7.04-1.216-12.8 3.712-12.8 10.112v39.296c0 6.784 5.184 13.184 12.8 14.528l272.192 46.72zM65.28 690.368c0 7.168 5.504 12.928 12.672 12.928h34.24a12.608 12.608 0 0 0 12.672-12.928V396.8a12.672 12.672 0 0 0-12.672-12.864h-34.24A12.608 12.608 0 0 0 65.28 396.8v293.632z m416.896 0c0 7.168 5.504 12.928 12.672 12.928h34.304a12.608 12.608 0 0 0 12.608-12.928V396.8a12.672 12.672 0 0 0-12.608-12.864h-34.304a12.608 12.608 0 0 0-12.672 12.864v293.632zM899.072 563.2c0 6.784 5.504 12.288 12.672 12.288h34.304a13.056 13.056 0 0 0 12.608-12.288V332.288a12.352 12.352 0 0 0-12.608-12.352h-34.304a13.056 13.056 0 0 0-12.672 12.352V563.2zM65.28 882.24c0 7.04 5.504 12.736 12.672 12.736h34.24a12.544 12.544 0 0 0 12.672-12.736V779.904a12.544 12.544 0 0 0-12.672-12.736h-34.24a12.544 12.544 0 0 0-12.672 12.8V882.24z m416.896 0c0 7.04 5.504 12.736 12.672 12.736h34.304a12.544 12.544 0 0 0 12.608-12.736V779.904a12.544 12.544 0 0 0-12.608-12.736h-34.304a12.544 12.544 0 0 0-12.672 12.8V882.24z m89.344 0c0 7.04 5.184 12.736 12.8 12.736h272.192c7.04 0 12.8-5.504 12.8-12.736V779.904c0-7.04-5.12-12.736-12.8-12.736H584.32c-7.04 0-12.8 5.504-12.8 12.8V882.24z m327.552 0.384c0 6.848 5.504 12.352 12.672 12.352h34.304a13.056 13.056 0 0 0 12.608-12.352V651.712a12.352 12.352 0 0 0-12.608-12.288h-34.304a13.056 13.056 0 0 0-12.672 12.288v230.912z" fill="#707070" p-id="3938"></path></svg>