<?xml version="1.0" standalone="no"?><!DOCTYPE svg PUBLIC "-//W3C//DTD SVG 1.1//EN" "http://www.w3.org/Graphics/SVG/1.1/DTD/svg11.dtd"><svg t="1712821876132" class="icon" viewBox="0 0 1026 1024" version="1.1" xmlns="http://www.w3.org/2000/svg" p-id="5720" xmlns:xlink="http://www.w3.org/1999/xlink" width="200.390625" height="200"><path d="M92.672 385.536h-65.536v127.488h65.536v-127.488z m0 193.536h-65.536v127.488h65.536V579.072z m0-386.048h-65.536v127.488h65.536v-127.488z m773.632-65.536H931.84v-127.488h-128v65.536h65.536v61.952h-3.072z m-128-127.488h-127.488v65.536h127.488v-65.536z m128 324.608H931.84v-131.584h-65.536v131.584zM220.16 65.536h127.488v-65.536H220.16v65.536z m324.608-65.536h-127.488v65.536h127.488v-65.536zM220.16 904.704h127.488v-65.536H220.16v65.536z m-193.536-777.216h65.536v-61.952h65.536v-65.536h-131.584v127.488z m66.048 649.728h-65.536v127.488h127.488v-65.536h-61.952v-61.952zM1026.048 455.168l-568.832 568.832-74.24-74.24 568.832-568.832 74.24 74.24z m-568.832-74.752L1026.048 949.76l-74.24 74.24-568.832-568.832 74.24-74.752z" fill="#515151" p-id="5721"></path></svg>