<?xml version="1.0" standalone="no"?><!DOCTYPE svg PUBLIC "-//W3C//DTD SVG 1.1//EN" "http://www.w3.org/Graphics/SVG/1.1/DTD/svg11.dtd"><svg t="1712754474354" class="icon" viewBox="0 0 1024 1024" version="1.1" xmlns="http://www.w3.org/2000/svg" p-id="1535" xmlns:xlink="http://www.w3.org/1999/xlink" width="200" height="200"><path d="M759.94003 496.903548c-146.870565 0-263.548226 116.677661-263.548226 263.548226s116.677661 263.548226 263.548226 263.548226 263.548226-116.677661 263.548226-263.548226c0-147.382309-116.677661-263.548226-263.548226-263.548226z m105.41929 323.422289c1.535232 1.535232 3.070465 3.582209 4.605697 6.14093 9.723138 12.281859 8.69965 29.681159-2.55872 40.93953-12.281859 11.770115-31.728136 12.281859-44.009995 0l-63.456272-63.456272-63.456272 63.456272c-12.281859 12.281859-31.728136 12.281859-44.009995 0-12.281859-12.281859-12.281859-31.728136 0-44.009995l63.456272-63.456272-63.456272-63.456272c-12.281859-12.281859-12.281859-31.728136 0-44.009995l2.558721-2.558721c11.258371-10.746627 29.681159-10.234883 40.427786 0.511745l63.968016 63.968016 63.968016-63.968016c11.258371-11.258371 29.169415-11.258371 40.427786-0.511745 1.023488 0.511744 2.046977 1.535232 2.558721 2.558721 12.281859 12.281859 12.281859 31.728136 0 44.009995L803.438281 759.428286l61.921039 60.897551zM516.861569 939.050475c17.3993 14.84058 23.028486 39.916042 11.258371 60.385807-10.234883 17.911044-30.192904 26.610695-49.63918 23.54023L409.395302 984.595702l-14.840579-8.187906c-34.286857-18.422789-55.268366-54.756622-55.268366-93.649175v-450.334833c0-3.582209-1.535232-7.164418-4.605697-9.211394L29.681159 179.110445c-30.192904-31.216392-37.869065-76.249875-20.469765-115.654173C25.587206 25.075462 63.456272 0 105.41929 0H915.510245c58.338831 0 106.442779 47.592204 106.954523 106.442779 0 27.122439-9.723138 52.709645-28.145927 72.667666l-4.093953 4.093953-229.773114 186.786606L691.878061 424.747626c-17.911044 4.093953-37.357321-1.535232-50.150925-16.887556-17.3993-20.981509-14.328836-50.662669 4.605698-69.085457l52.709645-42.474763 226.190904-184.73963c0.511744-1.023488 1.023488-4.093953 0.511744-6.652674-0.511744-3.070465-2.046977-5.629185-4.093953-7.164418-2.046977-1.535232-4.093953-2.046977-6.652673-2.046976h-808.555722c-3.582209-0.511744-6.14093 1.023488-8.187906 3.070465-2.046977 2.046977-3.070465 5.117441-3.070465 7.676162 0 2.046977 0.511744 4.093953 1.535232 6.140929l296.811594 236.937531c25.587206 19.958021 40.427786 50.662669 40.427786 82.902549v450.334833c0 4.605697 2.046977 8.187906 5.629186 10.234882l18.422789 11.258371 58.850574 34.798601z" fill="#515151" p-id="1536"></path></svg>