<?xml version="1.0" standalone="no"?><!DOCTYPE svg PUBLIC "-//W3C//DTD SVG 1.1//EN" "http://www.w3.org/Graphics/SVG/1.1/DTD/svg11.dtd"><svg t="1712539387536" class="icon" viewBox="0 0 1024 1024" version="1.1" xmlns="http://www.w3.org/2000/svg" p-id="14804" xmlns:xlink="http://www.w3.org/1999/xlink" width="200" height="200"><path d="M213.333333 981.333333H128a42.666667 42.666667 0 0 1-42.666667-42.666666V256h42.666667v682.666667h85.333333v42.666666z m682.666667-426.666666h-42.666667V256h42.666667v298.666667zM384 554.666667H341.333333v-128h42.666667v128z m128 0h-42.666667v-128h42.666667v128z m128 0h-42.666667v-128h42.666667v128z m-8.789333-392.789334L554.666667 85.333333h-128L350.122667 161.877333A41.088 41.088 0 0 1 341.333333 106.666667l29.994667-45.013334A42.666667 42.666667 0 0 1 406.826667 42.666667h167.68a42.666667 42.666667 0 0 1 35.498666 18.986666L640 106.666667a41.173333 41.173333 0 0 1-8.789333 55.210666zM605.738667 170.666667H375.594667h230.144z" fill="#2c2c2c" p-id="14805"></path><path d="M0 128h981.333333v42.666667H0z m481.536 768H371.797333L341.333333 981.333333H298.666667l42.666666-119.466666V853.333333h3.029334L405.333333 682.666667h42.666667l60.970667 170.666666H512v8.533334l42.666667 119.466666h-42.666667l-30.464-85.333333z m-15.232-42.666667L426.666667 742.4 387.029333 853.333333h79.274667zM853.333333 938.666667h128v42.666666h-170.666666v-298.666666h42.666666v256z m-213.333333 0h128v42.666666h-170.666667v-298.666666h42.666667v256z" fill="#2c2c2c" p-id="14806"></path></svg>