<?xml version="1.0" standalone="no"?><!DOCTYPE svg PUBLIC "-//W3C//DTD SVG 1.1//EN" "http://www.w3.org/Graphics/SVG/1.1/DTD/svg11.dtd"><svg t="1712540719505" class="icon" viewBox="0 0 1024 1024" version="1.1" xmlns="http://www.w3.org/2000/svg" p-id="2362" xmlns:xlink="http://www.w3.org/1999/xlink" width="200" height="200"><path d="M636.3648 713.472c16.896 9.0624 37.6832 2.9184 47.36-13.9776 13.6704-20.8384 6.8096-34.5088-13.568-48.5888l-162.4064-90.3168V435.6096c94.6688-13.8752 169.1136-97.3312 169.1136-201.472C676.864 115.968 588.8512 25.6 473.7536 25.6S270.6944 115.8656 270.6944 234.1376c0 104.2432 74.496 187.648 169.216 201.472v118.1696l-114.9952 69.5808c-33.7408-27.9552-74.4448-41.6768-121.8048-41.6768C88.0128 581.6832 0 671.8976 0 790.2208 0 908.1344 87.9616 998.4 203.1104 998.4c115.0976 0 203.1616-90.2656 203.1616-208.1792 0-41.728-13.568-83.6096-33.8432-111.5648l101.5808-62.5664 162.3552 97.3824z m-297.8304 76.2368c0 76.6464-60.9792 139.264-135.4752 139.264-74.7008-0.4608-135.1168-62.5664-135.424-139.264 0-76.288 60.9792-139.008 135.424-139.008 20.3776 0 47.4112 6.8608 61.0304 20.9408 20.3264 13.8752 33.8432 27.8016 47.2576 41.5744 20.48 21.0944 27.1872 48.7936 27.1872 76.4928z m0-555.6736c0-76.3904 60.928-139.0592 135.4752-139.0592 74.496 0 135.3728 62.5664 135.3728 139.0592 0 62.5664-40.4992 118.1696-101.376 132.0448-13.568 6.912-20.4288 6.912-33.9456 6.912-13.4144 0-20.2752 0-33.7408-6.912-59.9552-13.9776-102.2976-68.9664-101.7856-132.0448z m502.1184 645.1712l87.0912 89.4976a25.9072 25.9072 0 0 0 37.3248 0 27.648 27.648 0 0 0 0-38.2976l-87.1936-89.4976 87.1936-89.2928a27.648 27.648 0 0 0 0-38.2976 25.9072 25.9072 0 0 0-37.3248 0l-87.0912 89.3952-87.1936-89.3952a25.8048 25.8048 0 0 0-37.2736 0 27.648 27.648 0 0 0 0 38.2976l87.0912 89.2928-87.0912 89.4976a27.648 27.648 0 0 0 0 38.2976 25.8048 25.8048 0 0 0 37.2736 0l87.1936-89.4976z" fill="#515151" p-id="2363"></path></svg>