<?xml version="1.0" standalone="no"?><!DOCTYPE svg PUBLIC "-//W3C//DTD SVG 1.1//EN" "http://www.w3.org/Graphics/SVG/1.1/DTD/svg11.dtd"><svg t="1712488895218" class="icon" viewBox="0 0 1024 1024" version="1.1" xmlns="http://www.w3.org/2000/svg" p-id="17320" xmlns:xlink="http://www.w3.org/1999/xlink" width="200" height="200"><path d="M0 446.56409h446.820074V0H0zM74.523342 74.523342h297.805387v297.517405H74.523342zM577.11593 1023.936004H1023.936004V577.371914H577.11593z m74.491345-372.040747h297.805387v297.517405h-297.805387z m210.482844-343.562528l-37.245672-40.669458-52.348728 48.63696 121.720392 130.263859 13.375165-12.511218 38.109618-35.83776 10.815324-10.23936L1023.936004 325.131679l-48.63696-52.348728-36.701706 33.27792-1.983876-5.695644-3.423786-10.23936C879.241047 140.631211 749.777139 30.750078 592.058996 5.727642l-2.463846-0.31998v75.099306a362.505343 362.505343 0 0 1 271.631023 225.361915l0.831948 2.463846zM161.845885 721.010937l37.245672 40.669458 52.348728-48.63696-120.888444-130.263859-13.375165 12.511218-38.973564 35.83776-10.815324 10.239361-67.419786 62.844072 48.63696 52.348728 36.701706-33.27792 1.983876 5.695644 3.423786 10.23936c53.948628 149.494657 183.412537 259.375789 341.13068 284.398225l2.463846 0.31998v-75.099306a362.505343 362.505343 0 0 1-271.631023-225.361915l-0.831948-2.463846z" p-id="17321" fill="#515151"></path></svg>