<?xml version="1.0" standalone="no"?><!DOCTYPE svg PUBLIC "-//W3C//DTD SVG 1.1//EN" "http://www.w3.org/Graphics/SVG/1.1/DTD/svg11.dtd"><svg t="1712538515837" class="icon" viewBox="0 0 1024 1024" version="1.1" xmlns="http://www.w3.org/2000/svg" p-id="2741" xmlns:xlink="http://www.w3.org/1999/xlink" width="200" height="200"><path d="M0 0h182.857143a36.571429 36.571429 0 0 1 0 73.142857H73.142857v109.714286a36.571429 36.571429 0 0 1-73.142857 0V0zM647.606857 457.216A146.285714 146.285714 0 1 1 376.393143 566.857143 146.285714 146.285714 0 0 1 647.606857 457.142857z m-197.705143-5.558857a87.771429 87.771429 0 1 0 124.123429 124.123428 87.771429 87.771429 0 0 0-124.123429-124.123428z" fill="#515151" p-id="2742"></path><path d="M512 219.428571C321.828571 219.428571 161.28 342.820571 109.714286 512c51.638857 169.179429 212.187429 292.571429 402.285714 292.571429s350.646857-123.392 402.285714-292.571429C862.72 342.820571 702.098286 219.428571 512 219.428571z m0 58.514286l14.628571 0.292572c145.993143 5.632 272.384 95.597714 323.584 224.768l3.291429 8.996571-3.291429 8.996571C797.257143 654.482286 664.064 746.057143 512 746.057143l-14.628571-0.292572C351.378286 740.205714 224.987429 650.24 173.787429 520.996571l-3.364572-8.923428 3.364572-9.069714C226.742857 369.590857 359.862857 277.942857 512 277.942857zM182.857143 1024H0v-182.857143a36.571429 36.571429 0 0 1 73.142857 0V950.857143h109.714286a36.571429 36.571429 0 0 1 0 73.142857zM1024 0h-182.857143a36.571429 36.571429 0 0 0 0 73.142857H950.857143v109.714286a36.571429 36.571429 0 0 0 73.142857 0V0zM841.142857 1024H1024v-182.857143a36.571429 36.571429 0 0 0-73.142857 0V950.857143h-109.714286a36.571429 36.571429 0 0 0 0 73.142857z" fill="#515151" p-id="2743"></path></svg>