<?xml version="1.0" standalone="no"?><!DOCTYPE svg PUBLIC "-//W3C//DTD SVG 1.1//EN" "http://www.w3.org/Graphics/SVG/1.1/DTD/svg11.dtd"><svg t="1712538555413" class="icon" viewBox="0 0 1024 1024" version="1.1" xmlns="http://www.w3.org/2000/svg" p-id="3979" xmlns:xlink="http://www.w3.org/1999/xlink" width="200" height="200"><path d="M0 0h1024v1024H0z" fill="#FFFFFF" p-id="3980"></path><path d="M480 704a32 32 0 1 0 64 0h-64z m64-368a32 32 0 1 0-64 0h64zM328 288a32 32 0 1 0 0 64V288z m368 64a32 32 0 1 0 0-64v64zM256 128a32 32 0 1 0 0-64v64zM224 96v32-32z m352 32a32 32 0 1 0 0-64v64z m-128-64a32 32 0 1 0 0 64V64z m352 32v32-32z m-32-32a32 32 0 1 0 0 64V64zM96 224h32-32zM64 256a32 32 0 0 0 64 0H64z m64 192a32 32 0 1 0-64 0h64z m-64 128a32 32 0 1 0 64 0H64z m64 192a32 32 0 1 0-64 0h64z m-32 32h32-32zM928 224h32-32z m-32 32a32 32 0 1 0 64 0h-64z m64 192a32 32 0 1 0-64 0h64z m-64 128a32 32 0 1 0 64 0h-64z m64 192a32 32 0 1 0-64 0h64z m-32 32h-32 32z m-128 128v-32 32z m-32-32a32 32 0 1 0 0 64v-64z m-192 64a32 32 0 1 0 0-64v64z m-128-64a32 32 0 1 0 0 64v-64z m-192 64a32 32 0 1 0 0-64v64z m-32-32v-32 32z m320-224V336h-64V704h64z m-216-352h368V288h-368v64zM256 64H224v64h32V64z m320 0h-128v64h128V64z m224 0h-32v64h32V64zM64 224v32h64V224H64z m0 224v128h64v-128H64z m0 320v32h64v-32H64zM896 224v32h64V224h-64z m0 224v128h64v-128h-64z m0 320v32h64v-32h-64z m-96 128h-32v64h32v-64z m-224 0h-128v64h128v-64zM256 896H224v64h32v-64zM800 128a96 96 0 0 1 96 96h64a160 160 0 0 0-160-160v64zM224 64a160 160 0 0 0-160 160h64a96 96 0 0 1 96-96V64zM64 800a160 160 0 0 0 160 160v-64a96 96 0 0 1-96-96H64z m832 0a96 96 0 0 1-96 96v64a160 160 0 0 0 160-160h-64z" fill="#515151" p-id="3981" data-spm-anchor-id="a313x.search_index.0.i2.67f43a811KIcba" class="selected"></path></svg>